{
  "accessors": [
    {
      "bufferView": 2,
      "componentType": 5126,
      "count": 4719,
      "max": [
        90.578590393066406,
        115.772705078125,
        -2.8020706176757812
      ],
      "min": [
        -83.385818481445312,
        -124.17163848876953,
        -71.89794921875
      ],
      "type": "VEC3"
    },
    {
      "bufferView": 2,
      "byteOffset": 56628,
      "componentType": 5126,
      "count": 4719,
      "max": [
        0.99995601177215576,
        0.99931532144546509,
        0.9999992847442627
      ],
      "min": [
        -0.99992907047271729,
        -0.99999642372131348,
        -0.99999624490737915
      ],
      "type": "VEC3"
    },
    {
      "bufferView": 3,
      "componentType": 5126,
      "count": 4719,
      "max": [
        0.99840933084487915,
        0.99893337488174438,
        0.99968308210372925,
        1
      ],
      "min": [
        -0.99999988079071045,
        -0.99602168798446655,
        -0.99999970197677612,
        -1
      ],
      "type": "VEC4"
    },
    {
      "bufferView": 1,
      "componentType": 5126,
      "count": 4719,
      "max": [
        0.99950003623962402,
        0.99275761842727661
      ],
      "min": [
        0.00050000002374872565,
        0.070154830813407898
      ],
      "type": "VEC2"
    },
    {
      "bufferView": 0,
      "componentType": 5125,
      "count": 26898,
      "max": [
        4718
      ],
      "min": [
        0
      ],
      "type": "SCALAR"
    },
    {
      "bufferView": 2,
      "byteOffset": 113256,
      "componentType": 5126,
      "count": 1672,
      "max": [
        63.146072387695312,
        129.4461669921875,
        50.089942932128906
      ],
      "min": [
        -64.620452880859375,
        -99.582778930664062,
        -70.557044982910156
      ],
      "type": "VEC3"
    },
    {
      "bufferView": 2,
      "byteOffset": 133320,
      "componentType": 5126,
      "count": 1672,
      "max": [
        1,
        1,
        1
      ],
      "min": [
        -1,
        -1,
        -1
      ],
      "type": "VEC3"
    },
    {
      "bufferView": 3,
      "byteOffset": 75504,
      "componentType": 5126,
      "count": 1672,
      "max": [
        1,
        1,
        1,
        1
      ],
      "min": [
        -1,
        -1,
        -1,
        1
      ],
      "type": "VEC4"
    },
    {
      "bufferView": 1,
      "byteOffset": 37752,
      "componentType": 5126,
      "count": 1672,
      "max": [
        0.99950003623962402,
        0.97435444593429565
      ],
      "min": [
        0.00050000002374872565,
        0.00050000002374872565
      ],
      "type": "VEC2"
    },
    {
      "bufferView": 0,
      "byteOffset": 107592,
      "componentType": 5125,
      "count": 5592,
      "max": [
        1671
      ],
      "min": [
        0
      ],
      "type": "SCALAR"
    },
    {
      "bufferView": 2,
      "byteOffset": 153384,
      "componentType": 5126,
      "count": 140,
      "max": [
        59.262809753417969,
        118.31951904296875,
        -19.329902648925781
      ],
      "min": [
        -60.737190246582031,
        -91.68048095703125,
        -49.329902648925781
      ],
      "type": "VEC3"
    },
    {
      "bufferView": 2,
      "byteOffset": 155064,
      "componentType": 5126,
      "count": 140,
      "max": [
        0.98344099521636963,
        0.98344099521636963,
        0.98810726404190063
      ],
      "min": [
        -0.98344099521636963,
        -0.98344099521636963,
        -0.98810726404190063
      ],
      "type": "VEC3"
    },
    {
      "bufferView": 3,
      "byteOffset": 102256,
      "componentType": 5126,
      "count": 140,
      "max": [
        0.99707818031311035,
        0.37473022937774658,
        0.98950022459030151,
        1
      ],
      "min": [
        -0.12707392871379852,
        -0.37410545349121094,
        -0.99179661273956299,
        1
      ],
      "type": "VEC4"
    },
    {
      "bufferView": 1,
      "byteOffset": 51128,
      "componentType": 5126,
      "count": 140,
      "max": [
        0.92040961980819702,
        0.99950003623962402
      ],
      "min": [
        0.029969355091452599,
        0.0043923705816268921
      ],
      "type": "VEC2"
    },
    {
      "bufferView": 0,
      "byteOffset": 129960,
      "componentType": 5125,
      "count": 612,
      "max": [
        139
      ],
      "min": [
        0
      ],
      "type": "SCALAR"
    }
  ],
  "asset": {
    "extras": {
      "author": "Yenikholic (https://sketchfab.com/yenikholic)",
      "license": "CC-BY-4.0 (http://creativecommons.org/licenses/by/4.0/)",
      "source": "https://sketchfab.com/3d-models/sm-bed-a8f00773d9c84741bddfb390f43a69fb",
      "title": "SM Bed"
    },
    "generator": "Sketchfab-9.11.0",
    "version": "2.0"
  },
  "bufferViews": [
    {
      "buffer": 0,
      "byteLength": 132408,
      "byteOffset": 0,
      "name": "floatBufferViews",
      "target": 34963
    },
    {
      "buffer": 0,
      "byteLength": 52248,
      "byteOffset": 132408,
      "byteStride": 8,
      "name": "floatBufferViews",
      "target": 34962
    },
    {
      "buffer": 0,
      "byteLength": 156744,
      "byteOffset": 184656,
      "byteStride": 12,
      "name": "floatBufferViews",
      "target": 34962
    },
    {
      "buffer": 0,
      "byteLength": 104496,
      "byteOffset": 341400,
      "byteStride": 16,
      "name": "floatBufferViews",
      "target": 34962
    }
  ],
  "buffers": [
    {
      "byteLength": 445896,
      "uri": "scene.bin"
    }
  ],
  "images": [
    {
      "uri": "textures/tela_baseColor.jpeg"
    },
    {
      "uri": "textures/tela_metallicRoughness.png"
    },
    {
      "uri": "textures/tela_normal.png"
    },
    {
      "uri": "textures/madera_baseColor.jpeg"
    },
    {
      "uri": "textures/madera_metallicRoughness.png"
    },
    {
      "uri": "textures/madera_normal.png"
    },
    {
      "uri": "textures/colchon_baseColor.jpeg"
    },
    {
      "uri": "textures/colchon_metallicRoughness.png"
    },
    {
      "uri": "textures/colchon_normal.png"
    }
  ],
  "materials": [
    {
      "doubleSided": true,
      "emissiveFactor": [
        0,
        0,
        0
      ],
      "name": "tela",
      "normalTexture": {
        "index": 2,
        "scale": 1,
        "texCoord": 0
      },
      "occlusionTexture": {
        "index": 1,
        "strength": 1,
        "texCoord": 0
      },
      "pbrMetallicRoughness": {
        "baseColorFactor": [
          1,
          1,
          1,
          1
        ],
        "baseColorTexture": {
          "index": 0,
          "texCoord": 0
        },
        "metallicFactor": 1,
        "metallicRoughnessTexture": {
          "index": 1,
          "texCoord": 0
        },
        "roughnessFactor": 0.68009911287175084
      }
    },
    {
      "doubleSided": true,
      "emissiveFactor": [
        0,
        0,
        0
      ],
      "name": "madera",
      "normalTexture": {
        "index": 5,
        "scale": 1,
        "texCoord": 0
      },
      "occlusionTexture": {
        "index": 4,
        "strength": 1,
        "texCoord": 0
      },
      "pbrMetallicRoughness": {
        "baseColorFactor": [
          1,
          1,
          1,
          1
        ],
        "baseColorTexture": {
          "index": 3,
          "texCoord": 0
        },
        "metallicFactor": 1,
        "metallicRoughnessTexture": {
          "index": 4,
          "texCoord": 0
        },
        "roughnessFactor": 1
      }
    },
    {
      "doubleSided": true,
      "emissiveFactor": [
        0,
        0,
        0
      ],
      "name": "colchon",
      "normalTexture": {
        "index": 8,
        "scale": 1,
        "texCoord": 0
      },
      "occlusionTexture": {
        "index": 7,
        "strength": 1,
        "texCoord": 0
      },
      "pbrMetallicRoughness": {
        "baseColorFactor": [
          1,
          1,
          1,
          1
        ],
        "baseColorTexture": {
          "index": 6,
          "texCoord": 0
        },
        "metallicFactor": 1,
        "metallicRoughnessTexture": {
          "index": 7,
          "texCoord": 0
        },
        "roughnessFactor": 0.73662574005352166
      }
    }
  ],
  "meshes": [
    {
      "name": "Plane001_tela_0",
      "primitives": [
        {
          "attributes": {
            "NORMAL": 1,
            "POSITION": 0,
            "TANGENT": 2,
            "TEXCOORD_0": 3
          },
          "indices": 4,
          "material": 0,
          "mode": 4
        }
      ]
    },
    {
      "name": "Plane001_madera_0",
      "primitives": [
        {
          "attributes": {
            "NORMAL": 6,
            "POSITION": 5,
            "TANGENT": 7,
            "TEXCOORD_0": 8
          },
          "indices": 9,
          "material": 1,
          "mode": 4
        }
      ]
    },
    {
      "name": "Plane001_colchon_0",
      "primitives": [
        {
          "attributes": {
            "NORMAL": 11,
            "POSITION": 10,
            "TANGENT": 12,
            "TEXCOORD_0": 13
          },
          "indices": 14,
          "material": 2,
          "mode": 4
        }
      ]
    }
  ],
  "nodes": [
    {
      "children": [
        1
      ],
      "name": "RootNode (gltf orientation matrix)",
      "rotation": [
        -0.70710678118654746,
        -0,
        -0,
        0.70710678118654757
      ]
    },
    {
      "children": [
        2
      ],
      "matrix": [
        1,
        0,
        0,
        0,
        0,
        1,
        0,
        0,
        0,
        0,
        1,
        0,
        0,
        2.8421709430404007e-14,
        0,
        1
      ],
      "name": "RootNode (model correction matrix)"
    },
    {
      "children": [
        3
      ],
      "matrix": [
        1,
        0,
        0,
        0,
        0,
        0,
        1,
        0,
        0,
        -1,
        0,
        0,
        0,
        0,
        0,
        1
      ],
      "name": "9d2ed63f8a9b404dba89cb8d8da6bae5.fbx"
    },
    {
      "children": [
        4
      ],
      "name": "RootNode"
    },
    {
      "children": [
        5
      ],
      "matrix": [
        1,
        0,
        0,
        0,
        0,
        2.2204460492503131e-16,
        -1,
        0,
        0,
        1,
        2.2204460492503131e-16,
        0,
        0,
        0,
        0,
        1
      ],
      "name": "Plane001"
    },
    {
      "children": [
        6,
        7,
        8
      ],
      "matrix": [
        1,
        0,
        -0,
        0,
        0,
        1,
        0,
        0,
        0,
        0,
        1,
        0,
        0.73719024658203103,
        -133.31951904296901,
        71.75,
        1
      ],
      "name": ""
    },
    {
      "mesh": 0,
      "name": "Plane001_tela_0"
    },
    {
      "mesh": 1,
      "name": "Plane001_madera_0"
    },
    {
      "mesh": 2,
      "name": "Plane001_colchon_0"
    }
  ],
  "samplers": [
    {
      "magFilter": 9729,
      "minFilter": 9987,
      "wrapS": 10497,
      "wrapT": 10497
    }
  ],
  "scene": 0,
  "scenes": [
    {
      "name": "OSG_Scene",
      "nodes": [
        0
      ]
    }
  ],
  "textures": [
    {
      "sampler": 0,
      "source": 0
    },
    {
      "sampler": 0,
      "source": 1
    },
    {
      "sampler": 0,
      "source": 2
    },
    {
      "sampler": 0,
      "source": 3
    },
    {
      "sampler": 0,
      "source": 4
    },
    {
      "sampler": 0,
      "source": 5
    },
    {
      "sampler": 0,
      "source": 6
    },
    {
      "sampler": 0,
      "source": 7
    },
    {
      "sampler": 0,
      "source": 8
    }
  ]
}

