{
  "accessors": [
    {
      "bufferView": 2,
      "componentType": 5126,
      "count": 1596,
      "max": [
        0.2493395060300827,
        0.047529511153697968,
        0.50538456439971924
      ],
      "min": [
        -0.252097487449646,
        -0.039453011006116867,
        0.0039476319216191769
      ],
      "type": "VEC3"
    },
    {
      "bufferView": 2,
      "byteOffset": 19152,
      "componentType": 5126,
      "count": 1596,
      "max": [
        1,
        1,
        1
      ],
      "min": [
        -1,
        -1,
        -1
      ],
      "type": "VEC3"
    },
    {
      "bufferView": 3,
      "componentType": 5126,
      "count": 1596,
      "max": [
        0.99525779485702515,
        0.99943608045578003,
        0.99743437767028809,
        1
      ],
      "min": [
        -0.99525648355484009,
        -0.99946492910385132,
        -0.99223846197128296,
        1
      ],
      "type": "VEC4"
    },
    {
      "bufferView": 1,
      "componentType": 5126,
      "count": 1596,
      "max": [
        0.99245798587799072,
        0.99203497171401978
      ],
      "min": [
        0.011558899655938148,
        0.011804900132119656
      ],
      "type": "VEC2"
    },
    {
      "bufferView": 1,
      "byteOffset": 12768,
      "componentType": 5126,
      "count": 1596,
      "max": [
        0.99245798587799072,
        0.99203497171401978
      ],
      "min": [
        0.011558899655938148,
        0.011804900132119656
      ],
      "type": "VEC2"
    },
    {
      "bufferView": 1,
      "byteOffset": 25536,
      "componentType": 5126,
      "count": 1596,
      "max": [
        0.99245798587799072,
        0.99203497171401978
      ],
      "min": [
        0.011558899655938148,
        0.011804900132119656
      ],
      "type": "VEC2"
    },
    {
      "bufferView": 0,
      "componentType": 5125,
      "count": 8184,
      "max": [
        1595
      ],
      "min": [
        0
      ],
      "type": "SCALAR"
    }
  ],
  "asset": {
    "extras": {
      "author": "em_kei (https://sketchfab.com/em_kei)",
      "license": "CC-BY-4.0 (http://creativecommons.org/licenses/by/4.0/)",
      "source": "https://sketchfab.com/3d-models/viking-shield-ca6e4fa01437436da7c333ae7ad4b0e7",
      "title": "Viking Shield"
    },
    "generator": "Sketchfab-6.71.0",
    "version": "2.0"
  },
  "bufferViews": [
    {
      "buffer": 0,
      "byteLength": 32736,
      "byteOffset": 0,
      "name": "floatBufferViews",
      "target": 34963
    },
    {
      "buffer": 0,
      "byteLength": 38304,
      "byteOffset": 32736,
      "byteStride": 8,
      "name": "floatBufferViews",
      "target": 34962
    },
    {
      "buffer": 0,
      "byteLength": 38304,
      "byteOffset": 71040,
      "byteStride": 12,
      "name": "floatBufferViews",
      "target": 34962
    },
    {
      "buffer": 0,
      "byteLength": 25536,
      "byteOffset": 109344,
      "byteStride": 16,
      "name": "floatBufferViews",
      "target": 34962
    }
  ],
  "buffers": [
    {
      "byteLength": 134880,
      "uri": "scene.bin"
    }
  ],
  "images": [
    {
      "uri": "textures/Shield_baseColor.png"
    },
    {
      "uri": "textures/Shield_metallicRoughness.png"
    },
    {
      "uri": "textures/Shield_normal.png"
    }
  ],
  "materials": [
    {
      "doubleSided": true,
      "name": "Shield",
      "normalTexture": {
        "index": 2,
        "scale": 1,
        "texCoord": 0
      },
      "pbrMetallicRoughness": {
        "baseColorFactor": [
          1,
          1,
          1,
          1
        ],
        "baseColorTexture": {
          "index": 0,
          "texCoord": 0
        },
        "metallicFactor": 1,
        "metallicRoughnessTexture": {
          "index": 1,
          "texCoord": 0
        },
        "roughnessFactor": 1
      }
    }
  ],
  "meshes": [
    {
      "name": "Shield_Shield_0",
      "primitives": [
        {
          "attributes": {
            "NORMAL": 1,
            "POSITION": 0,
            "TANGENT": 2,
            "TEXCOORD_0": 3,
            "TEXCOORD_1": 4,
            "TEXCOORD_2": 5
          },
          "indices": 6,
          "material": 0,
          "mode": 4
        }
      ]
    }
  ],
  "nodes": [
    {
      "children": [
        1
      ],
      "name": "RootNode (gltf orientation matrix)",
      "rotation": [
        -0.70710678118654746,
        -0,
        -0,
        0.70710678118654757
      ]
    },
    {
      "children": [
        2
      ],
      "name": "RootNode (model correction matrix)"
    },
    {
      "children": [
        3
      ],
      "matrix": [
        1,
        0,
        0,
        0,
        0,
        0,
        1,
        0,
        0,
        -1,
        0,
        0,
        0,
        0,
        0,
        1
      ],
      "name": "56d3b5ba151b4afca7f7aca07f87243d.fbx"
    },
    {
      "children": [
        4
      ],
      "name": "RootNode"
    },
    {
      "children": [
        5
      ],
      "matrix": [
        100,
        0,
        0,
        0,
        0,
        -1.6292067939183141e-05,
        -99.999999999998678,
        0,
        0,
        99.999999999998678,
        -1.6292067939183141e-05,
        0,
        0,
        0,
        0,
        1
      ],
      "name": "Shield"
    },
    {
      "mesh": 0,
      "name": "Shield_Shield_0"
    }
  ],
  "samplers": [
    {
      "magFilter": 9729,
      "minFilter": 9987,
      "wrapS": 10497,
      "wrapT": 10497
    }
  ],
  "scene": 0,
  "scenes": [
    {
      "name": "OSG_Scene",
      "nodes": [
        0
      ]
    }
  ],
  "textures": [
    {
      "sampler": 0,
      "source": 0
    },
    {
      "sampler": 0,
      "source": 1
    },
    {
      "sampler": 0,
      "source": 2
    }
  ]
}

